<?xml version="1.0" encoding="utf-8" standalone="yes"?>
<!DOCTYPE svg PUBLIC "-//W3C//DTD SVG 1.1//EN" "http://www.w3.org/Graphics/SVG/1.1/DTD/svg11.dtd">
<svg style="fill:none;stroke:none;fill-rule:evenodd;clip-rule:evenodd;stroke-linecap:round;stroke-linejoin:round;stroke-miterlimit:1.5;" version="1.1" xmlns="http://www.w3.org/2000/svg" xmlns:xlink="http://www.w3.org/1999/xlink" width="1056" height="1056" viewBox="0 0 1056 1056"><style class="text-font-style fontImports" data-font-family="Roboto">@import url(https://fonts.googleapis.com/css2?family=Roboto:wght@400;700&amp;amp;display=block);</style><g id="items" style="isolation: isolate"><g id="blend" style="mix-blend-mode: normal"><g id="g-root-cp_4_g-4_4j7cdorjhybu-fill" data-item-order="-819700" transform="translate(160.7447052001953, 326.00006103515625)"><g id="cp_4_g-4_4j7cdorjhybu-fill-merged" stroke="none" fill="url(#gradient-d98afd-525750490)" fill-opacity="1"><g><path d="M194.029 52C194.029 55.314 191.342 58 188.029 58 H16C12.686 58 10 55.314 10 52 V16C10 12.686 12.686 10 16 10 H188.029C191.342 10 194.029 12.686 194.029 16 V52"></path></g></g></g><g id="g-root-cp_4_g-4_4j7cdorjhybu-stroke" data-item-order="-819700" transform="translate(160.7447052001953, 326.00006103515625)"><g id="cp_4_g-4_4j7cdorjhybu-stroke" fill="none" stroke-linecap="round" stroke-linejoin="round" stroke-miterlimit="4" stroke="#484848" stroke-width="2" stroke-opacity="1"><g><path d="M 16.000015 10C 12.686315 10 10.000015 12.6863 10.000015 16M 16.000015 10L 188.028671 10M 188.028671 10C 191.342371 10 194.028671 12.6863 194.028671 16M 194.028671 52L 194.028671 16M 10.000015 52L 10.000015 16M 10.000015 52C 10.000015 55.3137 12.686315 58 16.000015 58M 188.028671 58L 16.000015 58M 188.028671 58C 191.342371 58 194.028671 55.3137 194.028671 52"></path></g></g></g><g id="g-root-cp_1_g-1_1ltnuy4rjhxc3-fill" data-item-order="-819626" transform="translate(668.7733764648438, 116.00006103515625)"><g id="cp_1_g-1_1ltnuy4rjhxc3-fill-merged" stroke="none" fill="url(#gradient-fcaa5f-123734360)" fill-opacity="1"><g><path d="M10 52C10 55.314 12.686 58 16 58 H201.57C204.884 58 207.57 55.314 207.57 52 V16C207.57 12.686 204.884 10 201.57 10 H16C12.686 10 10 12.686 10 16 V52"></path></g></g></g><g id="g-root-cp_1_g-1_1ltnuy4rjhxc3-stroke" data-item-order="-819626" transform="translate(668.7733764648438, 116.00006103515625)"><g id="cp_1_g-1_1ltnuy4rjhxc3-stroke" fill="none" stroke-linecap="round" stroke-linejoin="round" stroke-miterlimit="4" stroke="#484848" stroke-width="2" stroke-opacity="1"><g><path d="M 201.570313 10C 204.884013 10 207.570313 12.6863 207.570313 16M 201.570313 10L 16 10M 16 10C 12.6863 10 10 12.6863 10 16M 10 52L 10 16M 207.570313 52L 207.570313 16M 207.570313 52C 207.570313 55.3137 204.884013 58 201.570313 58M 16 58L 201.570313 58M 16 58C 12.6863 58 10 55.3137 10 52"></path></g></g></g><g id="g-root-cp_-1_parent-4-part_v7dbakrjhxc4-fill" data-item-order="-819508" transform="translate(392.77337646484375, 476.00006103515625)"><g id="cp_-1_parent-4-part_v7dbakrjhxc4-fill-merged" stroke="none" fill="url(#gradient-b6b6b6-338031228)" fill-opacity="1"><g><path d="M238 88C238 91.314 235.314 94 232 94 H16C12.686 94 10 91.314 10 88 V16C10 12.686 12.686 10 16 10 H232C235.314 10 238 12.686 238 16 V88"></path></g></g></g><g id="g-root-cp_-1_parent-4-part_v7dbakrjhxc4-stroke" data-item-order="-819508" transform="translate(392.77337646484375, 476.00006103515625)"><g id="cp_-1_parent-4-part_v7dbakrjhxc4-stroke" fill="none" stroke-linecap="round" stroke-linejoin="round" stroke-miterlimit="4" stroke="#484848" stroke-width="2" stroke-opacity="1"><g><path d="M 16 10C 12.6863 10 10 12.6863 10 16M 16 10L 232 10M 232 10C 235.3137 10 238 12.6863 238 16M 238 88L 238 16M 10 88L 10 16M 10 88C 10 91.3137 12.6863 94 16 94M 232 94L 16 94M 232 94C 235.3137 94 238 91.3137 238 88"></path></g></g></g><g id="g-root-cp_3_g-3_909socrjhzpp-fill" data-item-order="-819426" transform="translate(221.18743896484375, 548.0000610351562)"><g id="cp_3_g-3_909socrjhzpp-fill-merged" stroke="none" fill="url(#gradient-fb85cc-431468215)" fill-opacity="1"><g><path d="M133.586 52C133.586 55.314 130.9 58 127.586 58 H16C12.686 58 10 55.314 10 52 V16C10 12.686 12.686 10 16 10 H127.586C130.9 10 133.586 12.686 133.586 16 V52"></path></g></g></g><g id="g-root-cp_3_g-3_909socrjhzpp-stroke" data-item-order="-819426" transform="translate(221.18743896484375, 548.0000610351562)"><g id="cp_3_g-3_909socrjhzpp-stroke" fill="none" stroke-linecap="round" stroke-linejoin="round" stroke-miterlimit="4" stroke="#484848" stroke-width="2" stroke-opacity="1"><g><path d="M 16 10C 12.6863 10 10 12.6863 10 16M 16 10L 127.585938 10M 127.585938 10C 130.899638 10 133.585938 12.6863 133.585938 16M 133.58593 52L 133.58593 16M 10 52L 10 16M 10 52C 10 55.3137 12.6863 58 16 58M 127.585938 58L 16 58M 127.585938 58C 130.899638 58 133.585938 55.3137 133.585938 52"></path></g></g></g><g id="g-root-cp_2_g-2_1qaqb8srjhypy-fill" data-item-order="-819360" transform="translate(668.7733764648438, 548.0000610351562)"><defs><linearGradient id="gradient-d98afd-525750490" x2="0" y2="1"><stop offset="0" stop-color="#e4a9ff"></stop><stop offset="1" stop-color="#cd6afb"></stop></linearGradient><linearGradient id="gradient-fcaa5f-123734360" x2="0" y2="1"><stop offset="0" stop-color="#ffbf84"></stop><stop offset="1" stop-color="#f99539"></stop></linearGradient><linearGradient id="gradient-b6b6b6-338031228" x2="0" y2="1"><stop offset="0" stop-color="#c8c8c8"></stop><stop offset="1" stop-color="#a3a3a3"></stop></linearGradient><linearGradient id="gradient-fb85cc-431468215" x2="0" y2="1"><stop offset="0" stop-color="#ffa1da"></stop><stop offset="1" stop-color="#f669be"></stop></linearGradient><linearGradient id="gradient-fe8884-413551779" x2="0" y2="1"><stop offset="0" stop-color="#ffa6a3"></stop><stop offset="1" stop-color="#fd6a65"></stop></linearGradient></defs><g id="cp_2_g-2_1qaqb8srjhypy-fill-merged" stroke="none" fill="url(#gradient-fe8884-413551779)" fill-opacity="1"><g><path d="M10 52C10 55.314 12.686 58 16 58 H185.646C188.96 58 191.646 55.314 191.646 52 V16C191.646 12.686 188.96 10 185.646 10 H16C12.686 10 10 12.686 10 16 V52"></path></g></g></g><g id="g-root-cp_2_g-2_1qaqb8srjhypy-stroke" data-item-order="-819360" transform="translate(668.7733764648438, 548.0000610351562)"><g id="cp_2_g-2_1qaqb8srjhypy-stroke" fill="none" stroke-linecap="round" stroke-linejoin="round" stroke-miterlimit="4" stroke="#484848" stroke-width="2" stroke-opacity="1"><g><path d="M 185.645874 10C 188.959574 10 191.645874 12.6863 191.645874 16M 185.645874 10L 16 10M 16 10C 12.6863 10 10 12.6863 10 16M 10 52L 10 16M 191.645874 52L 191.645874 16M 191.645874 52C 191.645874 55.3137 188.959574 58 185.645874 58M 16 58L 185.645874 58M 16 58C 12.6863 58 10 55.3137 10 52"></path></g></g></g><g id="g-root-he_18k2ru4rjhxxc-fill" data-item-order="-819235" transform="translate(620.7733764648438, 140.00006103515625)"></g><g id="g-root-he_18k2ru4rjhxxc-stroke" data-item-order="-819235" transform="translate(620.7733764648438, 140.00006103515625)"><g id="he_18k2ru4rjhxxc-stroke" fill="none" stroke-linecap="round" stroke-linejoin="round" stroke-miterlimit="4" stroke="#484848" stroke-width="2" stroke-opacity="1"><style>.fillAsHole-mk-m7za7wrtg555 { fill:#FFFFFF; }</style><g><path d="M 10 371.2L 22 371.2C 28.63 371.2 34 365.83 34 359.2L 34 22C 34 15.37 39.37 10 46 10L 55 10"></path><path d="M 55 10C 55.000001 11.656854 56.343147 13 58.000001 13C 59.656856 13 61.000001 11.656854 61.000001 10C 61.000001 8.343146 59.656856 7 58.000001 7C 56.343147 7 55.000001 8.343146 55.000001 10Z" stroke-dasharray="none" class="fillAsHole-mk-m7za7wrtg555" fill="#FFFFFF"></path></g></g></g><g id="g-root-he_zofrl8rjhyq2-fill" data-item-order="-819233" transform="translate(680.7733764648438, 164.00006103515625)"></g><g id="g-root-he_zofrl8rjhyq2-stroke" data-item-order="-819233" transform="translate(680.7733764648438, 164.00006103515625)"><g id="he_zofrl8rjhyq2-stroke" fill="none" stroke-linecap="round" stroke-linejoin="round" stroke-miterlimit="4" stroke="#484848" stroke-width="2" stroke-opacity="1"><style>.fillAsStrokeColor-mk-hs5s3grtg5xe { fill:#484848; }
.fillAsStrokeColor-mk-hs5s3grtg5xf { fill:#484848; }
.fillAsStrokeColor-mk-hs5s3grtg5xg { fill:#484848; }
.fillAsStrokeColor-mk-hs5s3grtg5xh { fill:#484848; }
.fillAsStrokeColor-mk-hs5s3grtg5xi { fill:#484848; }
.fillAsStrokeColor-mk-hs5s3grtg5xj { fill:#484848; }
.fillAsStrokeColor-mk-hs5s3grtg5xk { fill:#484848; }
.fillAsStrokeColor-mk-hs5s3grtg5xl { fill:#484848; }
.fillAsStrokeColor-mk-hs5s3grtg5xm { fill:#484848; }</style><g><path d="M 10 10L 10 304C 10 310.627426 15.372583 316.000009 22 316.000009L 22 316M 10 28L 22 28M 10 64L 22 64M 10 100L 22 100M 10 136L 22 136M 10 172L 22 172M 10 208L 22 208M 10 244L 22 244M 10 280L 22 280"></path><path d="M 20.5 316C 20.5 316.828436 21.171573 317.500009 22 317.500009C 22.828427 317.500009 23.5 316.828436 23.5 316.000009C 23.5 315.171582 22.828427 314.500009 22 314.500009C 21.171573 314.500009 20.5 315.171582 20.5 316.000009Z" stroke-dasharray="none" class="fillAsStrokeColor-mk-hs5s3grtg5xe" fill="#484848"></path><path d="M 20.5 28C 20.5 28.828428 21.171573 29.500001 22 29.500001C 22.828427 29.500001 23.5 28.828428 23.5 28.000001C 23.5 27.171573 22.828427 26.500001 22 26.500001C 21.171573 26.500001 20.5 27.171573 20.5 28.000001Z" stroke-dasharray="none" class="fillAsStrokeColor-mk-hs5s3grtg5xf" fill="#484848"></path><path d="M 20.5 64C 20.5 64.828429 21.171573 65.500002 22 65.500002C 22.828427 65.500002 23.5 64.828429 23.5 64.000002C 23.5 63.171574 22.828427 62.500002 22 62.500002C 21.171573 62.500002 20.5 63.171574 20.5 64.000002Z" stroke-dasharray="none" class="fillAsStrokeColor-mk-hs5s3grtg5xg" fill="#484848"></path><path d="M 20.5 100C 20.5 100.82843 21.171573 101.500003 22 101.500003C 22.828427 101.500003 23.5 100.82843 23.5 100.000003C 23.5 99.171576 22.828427 98.500003 22 98.500003C 21.171573 98.500003 20.5 99.171576 20.5 100.000003Z" stroke-dasharray="none" class="fillAsStrokeColor-mk-hs5s3grtg5xh" fill="#484848"></path><path d="M 20.5 136C 20.5 136.828431 21.171573 137.500004 22 137.500004C 22.828427 137.500004 23.5 136.828431 23.5 136.000004C 23.5 135.171577 22.828427 134.500004 22 134.500004C 21.171573 134.500004 20.5 135.171577 20.5 136.000004Z" stroke-dasharray="none" class="fillAsStrokeColor-mk-hs5s3grtg5xi" fill="#484848"></path><path d="M 20.5 172C 20.5 172.828432 21.171573 173.500005 22 173.500005C 22.828427 173.500005 23.5 172.828432 23.5 172.000005C 23.5 171.171578 22.828427 170.500005 22 170.500005C 21.171573 170.500005 20.5 171.171578 20.5 172.000005Z" stroke-dasharray="none" class="fillAsStrokeColor-mk-hs5s3grtg5xj" fill="#484848"></path><path d="M 20.5 208C 20.5 208.828433 21.171573 209.500006 22 209.500006C 22.828427 209.500006 23.5 208.828433 23.5 208.000006C 23.5 207.171579 22.828427 206.500006 22 206.500006C 21.171573 206.500006 20.5 207.171579 20.5 208.000006Z" stroke-dasharray="none" class="fillAsStrokeColor-mk-hs5s3grtg5xk" fill="#484848"></path><path d="M 20.5 244C 20.5 244.828434 21.171573 245.500007 22 245.500007C 22.828427 245.500007 23.5 244.828434 23.5 244.000007C 23.5 243.17158 22.828427 242.500007 22 242.500007C 21.171573 242.500007 20.5 243.17158 20.5 244.000007Z" stroke-dasharray="none" class="fillAsStrokeColor-mk-hs5s3grtg5xl" fill="#484848"></path><path d="M 20.5 280C 20.5 280.828435 21.171573 281.500008 22 281.500008C 22.828427 281.500008 23.5 280.828435 23.5 280.000008C 23.5 279.171581 22.828427 278.500008 22 278.500008C 21.171573 278.500008 20.5 279.171581 20.5 280.000008Z" stroke-dasharray="none" class="fillAsStrokeColor-mk-hs5s3grtg5xm" fill="#484848"></path></g></g></g><g id="g-root-he_zofrl8rjhyq4-fill" data-item-order="-819231" transform="translate(620.7733764648438, 534.8001098632812)"></g><g id="g-root-he_zofrl8rjhyq4-stroke" data-item-order="-819231" transform="translate(620.7733764648438, 534.8001098632812)"><g id="he_zofrl8rjhyq4-stroke" fill="none" stroke-linecap="round" stroke-linejoin="round" stroke-miterlimit="4" stroke="#484848" stroke-width="2" stroke-opacity="1"><style>.fillAsHole-mk-dcc9z0rtg6pv { fill:#FFFFFF; }</style><g><path d="M 10 10L 22 10C 28.63 10 34 15.37 34 22L 34 35.2C 34 41.83 39.37 47.2 46 47.2L 55 47.2"></path><path d="M 55 47.2C 55.000001 48.856855 56.343147 50.200001 58.000001 50.200001C 59.656856 50.200001 61.000001 48.856855 61.000001 47.200001C 61.000001 45.543147 59.656856 44.200001 58.000001 44.200001C 56.343147 44.200001 55.000001 45.543147 55.000001 47.200001Z" stroke-dasharray="none" class="fillAsHole-mk-dcc9z0rtg6pv" fill="#FFFFFF"></path></g></g></g><g id="g-root-he_v8m9gsrjhzie-fill" data-item-order="-819229" transform="translate(680.7733764648438, 596.0000610351562)"></g><g id="g-root-he_v8m9gsrjhzie-stroke" data-item-order="-819229" transform="translate(680.7733764648438, 596.0000610351562)"><g id="he_v8m9gsrjhzie-stroke" fill="none" stroke-linecap="round" stroke-linejoin="round" stroke-miterlimit="4" stroke="#484848" stroke-width="2" stroke-opacity="1"><style>.fillAsStrokeColor-mk-dcc9z0rtg6pw { fill:#484848; }
.fillAsStrokeColor-mk-dcc9z0rtg6px { fill:#484848; }
.fillAsStrokeColor-mk-dcc9z0rtg6py { fill:#484848; }
.fillAsStrokeColor-mk-dcc9z0rtg6pz { fill:#484848; }
.fillAsStrokeColor-mk-dcc9z0rtg6q0 { fill:#484848; }
.fillAsStrokeColor-mk-dcc9z0rtg6q1 { fill:#484848; }
.fillAsStrokeColor-mk-dcc9z0rtg6q2 { fill:#484848; }
.fillAsStrokeColor-mk-dcc9z0rtg6q3 { fill:#484848; }
.fillAsStrokeColor-mk-dcc9z0rtg6q4 { fill:#484848; }
.fillAsStrokeColor-mk-dcc9z0rtg6q5 { fill:#484848; }</style><g><path d="M 10 10L 10 387.994629C 10 394.622057 15.372583 399.994641 22 399.994641L 22 399.994629M 10 28L 22 28M 10 87.997314L 22 87.997314M 10 123.997314L 22 123.997314M 10 159.997314L 22 159.997314M 10 195.997314L 22 195.997314M 10 231.997314L 22 231.997314M 10 267.997314L 22 267.997314M 10 327.994629L 22 327.994629M 10 363.994629L 22 363.994629"></path><path d="M 20.5 399.995C 20.5 400.823439 21.171573 401.495012 22 401.495012C 22.828427 401.495012 23.5 400.823439 23.5 399.995012C 23.5 399.166584 22.828427 398.495012 22 398.495012C 21.171573 398.495012 20.5 399.166584 20.5 399.995012Z" stroke-dasharray="none" class="fillAsStrokeColor-mk-dcc9z0rtg6pw" fill="#484848"></path><path d="M 20.5 28C 20.5 28.828428 21.171573 29.500001 22 29.500001C 22.828427 29.500001 23.5 28.828428 23.5 28.000001C 23.5 27.171573 22.828427 26.500001 22 26.500001C 21.171573 26.500001 20.5 27.171573 20.5 28.000001Z" stroke-dasharray="none" class="fillAsStrokeColor-mk-dcc9z0rtg6px" fill="#484848"></path><path d="M 20.5 87.997C 20.5 88.825429 21.171573 89.497002 22 89.497002C 22.828427 89.497002 23.5 88.825429 23.5 87.997002C 23.5 87.168575 22.828427 86.497002 22 86.497002C 21.171573 86.497002 20.5 87.168575 20.5 87.997002Z" stroke-dasharray="none" class="fillAsStrokeColor-mk-dcc9z0rtg6py" fill="#484848"></path><path d="M 20.5 123.997C 20.5 124.825431 21.171573 125.497003 22 125.497003C 22.828427 125.497003 23.5 124.825431 23.5 123.997003C 23.5 123.168576 22.828427 122.497003 22 122.497003C 21.171573 122.497003 20.5 123.168576 20.5 123.997003Z" stroke-dasharray="none" class="fillAsStrokeColor-mk-dcc9z0rtg6pz" fill="#484848"></path><path d="M 20.5 159.997C 20.5 160.825432 21.171573 161.497004 22 161.497004C 22.828427 161.497004 23.5 160.825432 23.5 159.997004C 23.5 159.168577 22.828427 158.497004 22 158.497004C 21.171573 158.497004 20.5 159.168577 20.5 159.997004Z" stroke-dasharray="none" class="fillAsStrokeColor-mk-dcc9z0rtg6q0" fill="#484848"></path><path d="M 20.5 195.997C 20.5 196.825433 21.171573 197.497006 22 197.497006C 22.828427 197.497006 23.5 196.825433 23.5 195.997006C 23.5 195.168578 22.828427 194.497006 22 194.497006C 21.171573 194.497006 20.5 195.168578 20.5 195.997006Z" stroke-dasharray="none" class="fillAsStrokeColor-mk-dcc9z0rtg6q1" fill="#484848"></path><path d="M 20.5 231.997C 20.5 232.825434 21.171573 233.497007 22 233.497007C 22.828427 233.497007 23.5 232.825434 23.5 231.997007C 23.5 231.168579 22.828427 230.497007 22 230.497007C 21.171573 230.497007 20.5 231.168579 20.5 231.997007Z" stroke-dasharray="none" class="fillAsStrokeColor-mk-dcc9z0rtg6q2" fill="#484848"></path><path d="M 20.5 267.997C 20.5 268.825435 21.171573 269.497008 22 269.497008C 22.828427 269.497008 23.5 268.825435 23.5 267.997008C 23.5 267.168581 22.828427 266.497008 22 266.497008C 21.171573 266.497008 20.5 267.168581 20.5 267.997008Z" stroke-dasharray="none" class="fillAsStrokeColor-mk-dcc9z0rtg6q3" fill="#484848"></path><path d="M 20.5 327.995C 20.5 328.823437 21.171573 329.495009 22 329.495009C 22.828427 329.495009 23.5 328.823437 23.5 327.995009C 23.5 327.166582 22.828427 326.495009 22 326.495009C 21.171573 326.495009 20.5 327.166582 20.5 327.995009Z" stroke-dasharray="none" class="fillAsStrokeColor-mk-dcc9z0rtg6q4" fill="#484848"></path><path d="M 20.5 363.995C 20.5 364.823438 21.171573 365.495011 22 365.495011C 22.828427 365.495011 23.5 364.823438 23.5 363.995011C 23.5 363.166583 22.828427 362.495011 22 362.495011C 21.171573 362.495011 20.5 363.166583 20.5 363.995011Z" stroke-dasharray="none" class="fillAsStrokeColor-mk-dcc9z0rtg6q5" fill="#484848"></path></g></g></g><g id="g-root-he_qtf8fgrjhx4w-fill" data-item-order="-819227" transform="translate(344.77337646484375, 534.8001098632812)"></g><g id="g-root-he_qtf8fgrjhx4w-stroke" data-item-order="-819227" transform="translate(344.77337646484375, 534.8001098632812)"><g id="he_qtf8fgrjhx4w-stroke" fill="none" stroke-linecap="round" stroke-linejoin="round" stroke-miterlimit="4" stroke="#484848" stroke-width="2" stroke-opacity="1"><style>.fillAsHole-mk-8x58xortg4cm { fill:#FFFFFF; }</style><g><path d="M 58 10L 46 10C 39.37 10 34 15.37 34 22L 34 35.2C 34 41.83 28.63 47.2 22 47.2L 13 47.2"></path><path d="M 7 47.2C 7 48.856855 8.343146 50.200001 10 50.200001C 11.656854 50.200001 13 48.856855 13 47.200001C 13 45.543147 11.656854 44.200001 10 44.200001C 8.343146 44.200001 7 45.543147 7 47.200001Z" stroke-dasharray="none" class="fillAsHole-mk-8x58xortg4cm" fill="#FFFFFF"></path></g></g></g><g id="g-root-he_hxs86krjhxxm-fill" data-item-order="-819225" transform="translate(320.77337646484375, 596.0000610351562)"></g><g id="g-root-he_hxs86krjhxxm-stroke" data-item-order="-819225" transform="translate(320.77337646484375, 596.0000610351562)"><g id="he_hxs86krjhxxm-stroke" fill="none" stroke-linecap="round" stroke-linejoin="round" stroke-miterlimit="4" stroke="#484848" stroke-width="2" stroke-opacity="1"><style>.fillAsStrokeColor-mk-8x58xortg4cn { fill:#484848; }
.fillAsStrokeColor-mk-8x58xortg4co { fill:#484848; }</style><g><path d="M 22 10L 22 58C 22.000001 64.627419 16.627417 70.000002 10 70.000002L 10 70M 22 34L 10 34"></path><path d="M 8.5 70C 8.5 70.828429 9.171573 71.500002 10 71.500002C 10.828427 71.500002 11.5 70.828429 11.5 70.000002C 11.5 69.171575 10.828427 68.500002 10 68.500002C 9.171573 68.500002 8.5 69.171575 8.5 70.000002Z" stroke-dasharray="none" class="fillAsStrokeColor-mk-8x58xortg4cn" fill="#484848"></path><path d="M 8.5 34C 8.5 34.828428 9.171573 35.500001 10 35.500001C 10.828427 35.500001 11.5 34.828428 11.5 34.000001C 11.5 33.171574 10.828427 32.500001 10 32.500001C 9.171573 32.500001 8.5 33.171574 8.5 34.000001Z" stroke-dasharray="none" class="fillAsStrokeColor-mk-8x58xortg4co" fill="#484848"></path></g></g></g><g id="g-root-he_hxs86krjhxxo-fill" data-item-order="-819223" transform="translate(344.77337646484375, 350.00006103515625)"></g><g id="g-root-he_hxs86krjhxxo-stroke" data-item-order="-819223" transform="translate(344.77337646484375, 350.00006103515625)"><g id="he_hxs86krjhxxo-stroke" fill="none" stroke-linecap="round" stroke-linejoin="round" stroke-miterlimit="4" stroke="#484848" stroke-width="2" stroke-opacity="1"><style>.fillAsHole-mk-4hbqt8rtg54x { fill:#FFFFFF; }</style><g><path d="M 58 161.2L 46 161.2C 39.37 161.2 34 155.83 34 149.2L 34 22C 34 15.37 28.63 10 22 10L 13 10"></path><path d="M 7 10C 7 11.656854 8.343146 13 10 13C 11.656854 13 13 11.656854 13 10C 13 8.343146 11.656854 7 10 7C 8.343146 7 7 8.343146 7 10Z" stroke-dasharray="none" class="fillAsHole-mk-4hbqt8rtg54x" fill="#FFFFFF"></path></g></g></g><g id="g-root-he_dhyq24rjhypy-fill" data-item-order="-819221" transform="translate(320.77337646484375, 374.00006103515625)"></g><g id="g-root-he_dhyq24rjhypy-stroke" data-item-order="-819221" transform="translate(320.77337646484375, 374.00006103515625)"><g id="he_dhyq24rjhypy-stroke" fill="none" stroke-linecap="round" stroke-linejoin="round" stroke-miterlimit="4" stroke="#484848" stroke-width="2" stroke-opacity="1"><style>.fillAsStrokeColor-mk-4hbqt8rtg54y { fill:#484848; }
.fillAsStrokeColor-mk-4hbqt8rtg54z { fill:#484848; }
.fillAsStrokeColor-mk-4hbqt8rtg550 { fill:#484848; }</style><g><path d="M 22 10L 22 94C 22.000001 100.62742 16.627417 106.000003 10 106.000003L 10 106M 22 34L 10 34M 22 70L 10 70"></path><path d="M 8.5 106C 8.5 106.82843 9.171573 107.500003 10 107.500003C 10.828427 107.500003 11.5 106.82843 11.5 106.000003C 11.5 105.171576 10.828427 104.500003 10 104.500003C 9.171573 104.500003 8.5 105.171576 8.5 106.000003Z" stroke-dasharray="none" class="fillAsStrokeColor-mk-4hbqt8rtg54y" fill="#484848"></path><path d="M 8.5 34C 8.5 34.828428 9.171573 35.500001 10 35.500001C 10.828427 35.500001 11.5 34.828428 11.5 34.000001C 11.5 33.171574 10.828427 32.500001 10 32.500001C 9.171573 32.500001 8.5 33.171574 8.5 34.000001Z" stroke-dasharray="none" class="fillAsStrokeColor-mk-4hbqt8rtg54z" fill="#484848"></path><path d="M 8.5 70C 8.5 70.828429 9.171573 71.500002 10 71.500002C 10.828427 71.500002 11.5 70.828429 11.5 70.000002C 11.5 69.171575 10.828427 68.500002 10 68.500002C 9.171573 68.500002 8.5 69.171575 8.5 70.000002Z" stroke-dasharray="none" class="fillAsStrokeColor-mk-4hbqt8rtg550" fill="#484848"></path></g></g></g><g id="g-root-tx_external_1usf8mkrjhxq8-fill" data-item-order="0" transform="translate(172.7447052001953, 338.00006103515625)"><g id="tx_external_1usf8mkrjhxq8-fill-merged" stroke="none" fill="#484848" fill-opacity="1"><g><text style="font: bold 20px Roboto, sans-serif; white-space: pre;" transform="translate(170.02867126464844, 22)" font-weight="bold" font-size="20px" font-family="Roboto, sans-serif"><tspan x="-158.03" y="11.33" dominant-baseline="ideographic">External Services</tspan></text></g></g></g><g id="g-root-tx_external_1usf8mkrjhxq8-stroke" data-item-order="0" transform="translate(172.7447052001953, 338.00006103515625)"></g><g id="g-root-tx_apiproje_1cuwh9orjjbwq-fill" data-item-order="0" transform="translate(704.7733764648438, 350.00006103515625)"><g id="tx_apiproje_1cuwh9orjjbwq-fill-merged" stroke="none" fill="#484848" fill-opacity="1"><g><text style="font: 20px Roboto, sans-serif; white-space: pre;" transform="translate(10, 22)" font-size="20px" font-family="Roboto, sans-serif"><tspan x="2" y="11.33" dominant-baseline="ideographic">/api/projects/*</tspan></text></g></g></g><g id="g-root-tx_apiproje_1cuwh9orjjbwq-stroke" data-item-order="0" transform="translate(704.7733764648438, 350.00006103515625)"></g><g id="g-root-tx_githubap_1464oz0rjhxq9-fill" data-item-order="0" transform="translate(207.15618896484375, 386.00006103515625)"><g id="tx_githubap_1464oz0rjhxq9-fill-merged" stroke="none" fill="#484848" fill-opacity="1"><g><text style="font: 20px Roboto, sans-serif; white-space: pre;" transform="translate(111.6171875, 22)" font-size="20px" font-family="Roboto, sans-serif"><tspan x="-99.62" y="11.33" dominant-baseline="ideographic">GitHub API</tspan></text></g></g></g><g id="g-root-tx_githubap_1464oz0rjhxq9-stroke" data-item-order="0" transform="translate(207.15618896484375, 386.00006103515625)"></g><g id="g-root-tx_apiteams_zjfywcrjjdhn-fill" data-item-order="0" transform="translate(704.7733764648438, 386.00006103515625)"><g id="tx_apiteams_zjfywcrjjdhn-fill-merged" stroke="none" fill="#484848" fill-opacity="1"><g><text style="font: 20px Roboto, sans-serif; white-space: pre;" transform="translate(10, 22)" font-size="20px" font-family="Roboto, sans-serif"><tspan x="2" y="11.33" dominant-baseline="ideographic">/api/teams/*</tspan></text></g></g></g><g id="g-root-tx_apiteams_zjfywcrjjdhn-stroke" data-item-order="0" transform="translate(704.7733764648438, 386.00006103515625)"></g><g id="g-root-tx_leetcode_quo6lorjhzb6-fill" data-item-order="0" transform="translate(183.87493896484375, 422.00006103515625)"><g id="tx_leetcode_quo6lorjhzb6-fill-merged" stroke="none" fill="#484848" fill-opacity="1"><g><text style="font: 20px Roboto, sans-serif; white-space: pre;" transform="translate(134.8984375, 22)" font-size="20px" font-family="Roboto, sans-serif"><tspan x="-122.9" y="11.33" dominant-baseline="ideographic">LeetCode API</tspan></text></g></g></g><g id="g-root-tx_leetcode_quo6lorjhzb6-stroke" data-item-order="0" transform="translate(183.87493896484375, 422.00006103515625)"></g><g id="g-root-tx_apievent_m8lxm4rjjbws-fill" data-item-order="0" transform="translate(704.7733764648438, 422.00006103515625)"><g id="tx_apievent_m8lxm4rjjbws-fill-merged" stroke="none" fill="#484848" fill-opacity="1"><g><text style="font: 20px Roboto, sans-serif; white-space: pre;" transform="translate(10, 22)" font-size="20px" font-family="Roboto, sans-serif"><tspan x="2" y="11.33" dominant-baseline="ideographic">/api/events/*</tspan></text></g></g></g><g id="g-root-tx_apievent_m8lxm4rjjbws-stroke" data-item-order="0" transform="translate(704.7733764648438, 422.00006103515625)"></g><g id="g-root-tx_apicalls_dju5bgrjhxqb-fill" data-item-order="0" transform="translate(224.7603759765625, 458.00006103515625)"><g id="tx_apicalls_dju5bgrjhxqb-fill-merged" stroke="none" fill="#484848" fill-opacity="1"><g><text style="font: 20px Roboto, sans-serif; white-space: pre;" transform="translate(94.01300048828125, 22)" font-size="20px" font-family="Roboto, sans-serif"><tspan x="-82.01" y="11.33" dominant-baseline="ideographic">API Calls</tspan></text></g></g></g><g id="g-root-tx_apicalls_dju5bgrjhxqb-stroke" data-item-order="0" transform="translate(224.7603759765625, 458.00006103515625)"></g><g id="g-root-tx_apinotif_8x5f8srjjdhp-fill" data-item-order="0" transform="translate(704.7733764648438, 458.00006103515625)"><g id="tx_apinotif_8x5f8srjjdhp-fill-merged" stroke="none" fill="#484848" fill-opacity="1"><g><text style="font: 20px Roboto, sans-serif; white-space: pre;" transform="translate(10, 22)" font-size="20px" font-family="Roboto, sans-serif"><tspan x="2" y="11.33" dominant-baseline="ideographic">/api/notifications/*</tspan></text></g></g></g><g id="g-root-tx_apinotif_8x5f8srjjdhp-stroke" data-item-order="0" transform="translate(704.7733764648438, 458.00006103515625)"></g><g id="g-root-tx_apiuser_1q5qijwrjjdhl-fill" data-item-order="0" transform="translate(704.7733764648438, 314.00006103515625)"><g id="tx_apiuser_1q5qijwrjjdhl-fill-merged" stroke="none" fill="#484848" fill-opacity="1"><g><text style="font: 20px Roboto, sans-serif; white-space: pre;" transform="translate(10, 22)" font-size="20px" font-family="Roboto, sans-serif"><tspan x="2" y="11.33" dominant-baseline="ideographic">/api/user/*</tspan></text></g></g></g><g id="g-root-tx_apiuser_1q5qijwrjjdhl-stroke" data-item-order="0" transform="translate(704.7733764648438, 314.00006103515625)"></g><g id="g-root-tx_apsitstu_1unffxorjjbpq-fill" data-item-order="0" transform="translate(419.5520324707031, 488.00006103515625)"><g id="tx_apsitstu_1unffxorjjbpq-fill-merged" stroke="none" fill="#484848" fill-opacity="1"><g><text style="font: bold 25px Roboto, sans-serif; white-space: pre;" transform="translate(97.22134399414062, 40)" font-weight="bold" font-size="25px" font-family="Roboto, sans-serif"><tspan x="-85.22" y="-0.83" dominant-baseline="ideographic">APSIT Student </tspan><tspan x="-42.81" y="29.17" dominant-baseline="ideographic">Sphere</tspan></text></g></g></g><g id="g-root-tx_apsitstu_1unffxorjjbpq-stroke" data-item-order="0" transform="translate(419.5520324707031, 488.00006103515625)"></g><g id="g-root-tx_apiauth_4g2yy4rjjc3s-fill" data-item-order="0" transform="translate(704.7733764648438, 278.00006103515625)"><g id="tx_apiauth_4g2yy4rjjc3s-fill-merged" stroke="none" fill="#484848" fill-opacity="1"><g><text style="font: 20px Roboto, sans-serif; white-space: pre;" transform="translate(10, 22)" font-size="20px" font-family="Roboto, sans-serif"><tspan x="2" y="11.33" dominant-baseline="ideographic">/api/auth/*</tspan></text></g></g></g><g id="g-root-tx_apiauth_4g2yy4rjjc3s-stroke" data-item-order="0" transform="translate(704.7733764648438, 278.00006103515625)"></g><g id="g-root-tx_typescri_i0wlm4rjhz47-fill" data-item-order="0" transform="translate(704.7733764648438, 242.00006103515625)"><g id="tx_typescri_i0wlm4rjhz47-fill-merged" stroke="none" fill="#484848" fill-opacity="1"><g><text style="font: 20px Roboto, sans-serif; white-space: pre;" transform="translate(10, 22)" font-size="20px" font-family="Roboto, sans-serif"><tspan x="2" y="11.33" dominant-baseline="ideographic">TypeScript</tspan></text></g></g></g><g id="g-root-tx_typescri_i0wlm4rjhz47-stroke" data-item-order="0" transform="translate(704.7733764648438, 242.00006103515625)"></g><g id="g-root-tx_tailwind_vcd3zgrjhxja-fill" data-item-order="0" transform="translate(704.7733764648438, 206.00006103515625)"><g id="tx_tailwind_vcd3zgrjhxja-fill-merged" stroke="none" fill="#484848" fill-opacity="1"><g><text style="font: 20px Roboto, sans-serif; white-space: pre;" transform="translate(10, 22)" font-size="20px" font-family="Roboto, sans-serif"><tspan x="2" y="11.33" dominant-baseline="ideographic">Tailwind CSS</tspan></text></g></g></g><g id="g-root-tx_tailwind_vcd3zgrjhxja-stroke" data-item-order="0" transform="translate(704.7733764648438, 206.00006103515625)"></g><g id="g-root-tx_datalaye_m9uvscrjje2v-fill" data-item-order="0" transform="translate(233.18743896484375, 560.0000610351562)"><g id="tx_datalaye_m9uvscrjje2v-fill-merged" stroke="none" fill="#484848" fill-opacity="1"><g><text style="font: bold 20px Roboto, sans-serif; white-space: pre;" transform="translate(109.5859375, 22)" font-weight="bold" font-size="20px" font-family="Roboto, sans-serif"><tspan x="-97.59" y="11.33" dominant-baseline="ideographic">Data Layer</tspan></text></g></g></g><g id="g-root-tx_datalaye_m9uvscrjje2v-stroke" data-item-order="0" transform="translate(233.18743896484375, 560.0000610351562)"></g><g id="g-root-tx_nextjsfr_1d30ne4rjhybx-fill" data-item-order="0" transform="translate(704.7733764648438, 170.00006103515625)"><g id="tx_nextjsfr_1d30ne4rjhybx-fill-merged" stroke="none" fill="#484848" fill-opacity="1"><g><text style="font: 20px Roboto, sans-serif; white-space: pre;" transform="translate(10, 22)" font-size="20px" font-family="Roboto, sans-serif"><tspan x="2" y="11.33" dominant-baseline="ideographic">Next.js Frontend</tspan></text></g></g></g><g id="g-root-tx_nextjsfr_1d30ne4rjhybx-stroke" data-item-order="0" transform="translate(704.7733764648438, 170.00006103515625)"></g><g id="g-root-tx_applicat_1cy0up8rjjd36-fill" data-item-order="0" transform="translate(680.7733764648438, 560.0000610351562)"><g id="tx_applicat_1cy0up8rjjd36-fill-merged" stroke="none" fill="#484848" fill-opacity="1"><g><text style="font: 20px Roboto, sans-serif; white-space: pre;" transform="translate(10, 22)" font-size="20px" font-family="Roboto, sans-serif"><tspan x="2" y="11.33" dominant-baseline="ideographic">Application Layer</tspan></text></g></g></g><g id="g-root-tx_applicat_1cy0up8rjjd36-stroke" data-item-order="0" transform="translate(680.7733764648438, 560.0000610351562)"></g><g id="g-root-tx_presenta_1qduoocrjhzws-fill" data-item-order="0" transform="translate(680.7733764648438, 128.00006103515625)"><g id="tx_presenta_1qduoocrjhzws-fill-merged" stroke="none" fill="#484848" fill-opacity="1"><g><text style="font: bold 20px Roboto, sans-serif; white-space: pre;" transform="translate(10, 22)" font-weight="bold" font-size="20px" font-family="Roboto, sans-serif"><tspan x="2" y="11.33" dominant-baseline="ideographic">Presentation Layer</tspan></text></g></g></g><g id="g-root-tx_presenta_1qduoocrjhzws-stroke" data-item-order="0" transform="translate(680.7733764648438, 128.00006103515625)"></g><g id="g-root-tx__4mbpt8rjhzin-fill" data-item-order="0" transform="translate(504.77337646484375, 38.00006103515625)"><g id="tx__4mbpt8rjhzin-fill-merged" stroke="none" fill="#484848" fill-opacity="1"><g><text style="font: bold 25px Roboto, sans-serif; white-space: pre;" transform="translate(12, 10)" font-weight="bold" font-size="25px" font-family="Roboto, sans-serif"></text></g></g></g><g id="g-root-tx__4mbpt8rjhzin-stroke" data-item-order="0" transform="translate(504.77337646484375, 38.00006103515625)"></g><g id="g-root-tx_mysqldat_8z0ui4rjjci0-fill" data-item-order="0" transform="translate(152.0129852294922, 608.0000610351562)"><g id="tx_mysqldat_8z0ui4rjjci0-fill-merged" stroke="none" fill="#484848" fill-opacity="1"><g><text style="font: 20px Roboto, sans-serif; white-space: pre;" transform="translate(166.76039123535156, 22)" font-size="20px" font-family="Roboto, sans-serif"><tspan x="-154.76" y="11.33" dominant-baseline="ideographic">MySQL Database</tspan></text></g></g></g><g id="g-root-tx_mysqldat_8z0ui4rjjci0-stroke" data-item-order="0" transform="translate(152.0129852294922, 608.0000610351562)"></g><g id="g-root-tx_djangore_qrjt64rjjcaz-fill" data-item-order="0" transform="translate(704.7733764648438, 602.0000610351562)"><g id="tx_djangore_qrjt64rjjcaz-fill-merged" stroke="none" fill="#484848" fill-opacity="1"><g><text style="font: 20px Roboto, sans-serif; white-space: pre;" transform="translate(10, 33.9986572265625)" font-size="20px" font-family="Roboto, sans-serif"><tspan x="2" y="-0.67" dominant-baseline="ideographic">Django REST </tspan><tspan x="2" y="23.33" dominant-baseline="ideographic">Framework</tspan></text></g></g></g><g id="g-root-tx_djangore_qrjt64rjjcaz-stroke" data-item-order="0" transform="translate(704.7733764648438, 602.0000610351562)"></g><g id="g-root-tx_sqlqueri_1q9hd2krjjbi9-fill" data-item-order="0" transform="translate(195.43743896484375, 644.0000610351562)"><g id="tx_sqlqueri_1q9hd2krjjbi9-fill-merged" stroke="none" fill="#484848" fill-opacity="1"><g><text style="font: 20px Roboto, sans-serif; white-space: pre;" transform="translate(123.3359375, 22)" font-size="20px" font-family="Roboto, sans-serif"><tspan x="-111.34" y="11.33" dominant-baseline="ideographic">SQL Queries</tspan></text></g></g></g><g id="g-root-tx_sqlqueri_1q9hd2krjjbi9-stroke" data-item-order="0" transform="translate(195.43743896484375, 644.0000610351562)"></g><g id="g-root-tx_authmodu_dg3assrjjdvw-fill" data-item-order="0" transform="translate(704.7733764648438, 661.9973754882812)"><g id="tx_authmodu_dg3assrjjdvw-fill-merged" stroke="none" fill="#484848" fill-opacity="1"><g><text style="font: 20px Roboto, sans-serif; white-space: pre;" transform="translate(10, 22)" font-size="20px" font-family="Roboto, sans-serif"><tspan x="2" y="11.33" dominant-baseline="ideographic">Auth Module</tspan></text></g></g></g><g id="g-root-tx_authmodu_dg3assrjjdvw-stroke" data-item-order="0" transform="translate(704.7733764648438, 661.9973754882812)"></g><g id="g-root-tx_oauthint_1hgyq98rjjdhg-fill" data-item-order="0" transform="translate(704.7733764648438, 973.9946899414062)"><g id="tx_oauthint_1hgyq98rjjdhg-fill-merged" stroke="none" fill="#484848" fill-opacity="1"><g><text style="font: 20px Roboto, sans-serif; white-space: pre;" transform="translate(10, 22)" font-size="20px" font-family="Roboto, sans-serif"><tspan x="2" y="11.33" dominant-baseline="ideographic">OAuth Integration</tspan></text></g></g></g><g id="g-root-tx_oauthint_1hgyq98rjjdhg-stroke" data-item-order="0" transform="translate(704.7733764648438, 973.9946899414062)"></g><g id="g-root-tx_projects_1luwt4crjjdou-fill" data-item-order="0" transform="translate(704.7733764648438, 733.9973754882812)"><g id="tx_projects_1luwt4crjjdou-fill-merged" stroke="none" fill="#484848" fill-opacity="1"><g><text style="font: 20px Roboto, sans-serif; white-space: pre;" transform="translate(10, 22)" font-size="20px" font-family="Roboto, sans-serif"><tspan x="2" y="11.33" dominant-baseline="ideographic">Projects Module</tspan></text></g></g></g><g id="g-root-tx_projects_1luwt4crjjdou-stroke" data-item-order="0" transform="translate(704.7733764648438, 733.9973754882812)"></g><g id="g-root-tx_teamsmod_18k2ru4rjjc3z-fill" data-item-order="0" transform="translate(704.7733764648438, 769.9973754882812)"><g id="tx_teamsmod_18k2ru4rjjc3z-fill-merged" stroke="none" fill="#484848" fill-opacity="1"><g><text style="font: 20px Roboto, sans-serif; white-space: pre;" transform="translate(10, 22)" font-size="20px" font-family="Roboto, sans-serif"><tspan x="2" y="11.33" dominant-baseline="ideographic">Teams Module</tspan></text></g></g></g><g id="g-root-tx_teamsmod_18k2ru4rjjc3z-stroke" data-item-order="0" transform="translate(704.7733764648438, 769.9973754882812)"></g><g id="g-root-tx_eventsmo_zofrl8rjjdog-fill" data-item-order="0" transform="translate(704.7733764648438, 805.9973754882812)"><g id="tx_eventsmo_zofrl8rjjdog-fill-merged" stroke="none" fill="#484848" fill-opacity="1"><g><text style="font: 20px Roboto, sans-serif; white-space: pre;" transform="translate(10, 22)" font-size="20px" font-family="Roboto, sans-serif"><tspan x="2" y="11.33" dominant-baseline="ideographic">Events Module</tspan></text></g></g></g><g id="g-root-tx_eventsmo_zofrl8rjjdog-stroke" data-item-order="0" transform="translate(704.7733764648438, 805.9973754882812)"></g><g id="g-root-tx_notifica_mdlqb0rjjc3l-fill" data-item-order="0" transform="translate(704.7733764648438, 841.9973754882812)"><g id="tx_notifica_mdlqb0rjjc3l-fill-merged" stroke="none" fill="#484848" fill-opacity="1"><g><text style="font: 20px Roboto, sans-serif; white-space: pre;" transform="translate(10, 33.9986572265625)" font-size="20px" font-family="Roboto, sans-serif"><tspan x="2" y="-0.67" dominant-baseline="ideographic">Notifications </tspan><tspan x="2" y="23.33" dominant-baseline="ideographic">Module</tspan></text></g></g></g><g id="g-root-tx_notifica_mdlqb0rjjc3l-stroke" data-item-order="0" transform="translate(704.7733764648438, 841.9973754882812)"></g><g id="g-root-tx_coremodu_9257xorjjdoi-fill" data-item-order="0" transform="translate(704.7733764648438, 901.9946899414062)"><g id="tx_coremodu_9257xorjjdoi-fill-merged" stroke="none" fill="#484848" fill-opacity="1"><g><text style="font: 20px Roboto, sans-serif; white-space: pre;" transform="translate(10, 22)" font-size="20px" font-family="Roboto, sans-serif"><tspan x="2" y="11.33" dominant-baseline="ideographic">Core Module</tspan></text></g></g></g><g id="g-root-tx_coremodu_9257xorjjdoi-stroke" data-item-order="0" transform="translate(704.7733764648438, 901.9946899414062)"></g><g id="g-root-tx_jwtauthe_1usf8mkrjjbwj-fill" data-item-order="0" transform="translate(704.7733764648438, 937.9946899414062)"><g id="tx_jwtauthe_1usf8mkrjjbwj-fill-merged" stroke="none" fill="#484848" fill-opacity="1"><g><text style="font: 20px Roboto, sans-serif; white-space: pre;" transform="translate(10, 22)" font-size="20px" font-family="Roboto, sans-serif"><tspan x="2" y="11.33" dominant-baseline="ideographic">JWT Authentication</tspan></text></g></g></g><g id="g-root-tx_jwtauthe_1usf8mkrjjbwj-stroke" data-item-order="0" transform="translate(704.7733764648438, 937.9946899414062)"></g><g id="g-root-tx_usersmod_599ikrjjcb1-fill" data-item-order="0" transform="translate(704.7733764648438, 697.9973754882812)"><g id="tx_usersmod_599ikrjjcb1-fill-merged" stroke="none" fill="#484848" fill-opacity="1"><g><text style="font: 20px Roboto, sans-serif; white-space: pre;" transform="translate(10, 22)" font-size="20px" font-family="Roboto, sans-serif"><tspan x="2" y="11.33" dominant-baseline="ideographic">Users Module</tspan></text></g></g></g><g id="g-root-tx_usersmod_599ikrjjcb1-stroke" data-item-order="0" transform="translate(704.7733764648438, 697.9973754882812)"></g></g></g><path id="whwjmnwsngdfq" d="M65.283 12.757a.35.35 0 0 0 .584.157l5.203-5.141-6.183 3.523.396 1.461zm-2.216-11.7a.35.35 0 0 0-.522.305v3.111l3.276-1.868-2.754-1.548zm3.728 2.105l-4.25 2.421v2.445l6.391-3.644-2.141-1.222zm4.708 3.303a.35.35 0 0 0 0-.609l-1.592-.9-7.365 4.199v1.782a.35.35 0 0 0 .523.305l8.435-4.777z M44.542 2.513c0-.433.355-.783.792-.783s.792.35.792.783-.355.783-.792.783-.792-.35-.792-.783zm59.171 0c0-.433.355-.783.792-.783s.792.35.792.783-.355.783-.792.783-.792-.35-.792-.783zm-85.951 7.636h-1.27v-.487c-.276.201-.864.609-1.881.609-1.202 0-2.274-.794-2.137-2.078.118-1.106 1.153-1.584 1.848-1.727l2.17-.345c0-.539-.29-.956-1.064-1.006s-1.21.305-1.571 1.017l-1.124-.605c1.218-2.631 5.029-1.764 5.029.414v4.207zm-1.27-2.86c.006.396-.062 1.112-.819 1.59-.587.37-1.841.299-1.903-.395-.049-.555.461-.791.906-.898l1.816-.297zm72.662 2.86h-1.27v-.487c-.276.201-.864.609-1.881.609-1.202 0-2.274-.794-2.137-2.078.118-1.106 1.153-1.584 1.848-1.727l2.17-.345c0-.539-.29-.956-1.064-1.006s-1.21.305-1.571 1.017l-1.124-.605c1.218-2.631 5.029-1.764 5.029.414v4.207zm-1.27-2.86c.006.396-.062 1.112-.82 1.59-.587.37-1.841.299-1.903-.395-.049-.555.461-.791.906-.898l1.816-.297zM99.096 10.149H97.85v-8.45h1.246v4.895l2.68-2.559h1.738l-2.633 2.535 2.715 3.578h-1.556l-2.077-2.707-.867.844v1.863zm6.053-6.114h-1.255v6.113h1.255V4.035zm-59.2 0h-1.255v6.113h1.255V4.035zm5.584 6.113V1.697h1.255v2.695c.361-.346 1-.485 1.47-.485 1.452 0 2.477 1.082 2.457 2.448v3.792h-1.27v-3.68c0-.408-.214-1.339-1.315-1.339-.968 0-1.342.756-1.342 1.339v3.681h-1.255zm-4.76-4.894V4.039h.621a.45.45 0 0 0 .45-.45v-.855h1.251v1.305h1.309v1.215h-1.309v3.109c0 .293.105.664.648.664.365 0 .531-.035.736-.07v1.137s-.361.113-.857.113c-1.398 0-1.777-1.051-1.777-1.788V5.254h-1.071zM36.528 4.039h-1.394l2.191 6.106h1.125l1.234-3.918 1.238 3.918h1.129l2.188-6.106h-1.383l-1.359 3.93-1.256-3.93h-1.124l-1.242 3.957-1.348-3.957zM26.212 7.141c-.02 1.566 1.187 3.129 3.223 3.129 1.566 0 2.383-.918 2.734-1.719L31.172 8c-.315.399-.801 1.094-1.738 1.094-1.145 0-1.825-.781-1.891-1.52h4.625c.074-.284.148-.995-.03-1.559-.336-1.064-1.221-2.102-2.839-2.102s-3.088 1.152-3.088 3.227zm1.363-.75h3.348c-.055-.43-.566-1.301-1.623-1.301a1.79 1.79 0 0 0-1.725 1.301zm-8.758.75c.038 1.758 1.277 3.133 3.145 3.133 1.074 0 1.723-.477 1.961-.672v.547h1.242V1.703h-1.258v2.888c-.414-.36-1.062-.68-1.93-.68-1.91 0-3.198 1.473-3.16 3.23zm1.309-.08c0 1.119.723 1.978 1.836 1.978a1.88 1.88 0 0 0 1.94-1.904c0-1.371-1.011-1.99-1.972-1.99s-1.805.798-1.805 1.916zm76.683-.028C96.771 5.275 95.532 3.9 93.664 3.9c-1.074 0-1.723.477-1.961.672v-.547h-1.242v8.22h1.258V9.583c.414.36 1.063.68 1.93.68 1.91 0 3.198-1.473 3.16-3.23zm-1.309.08c0-1.119-.723-1.978-1.836-1.978a1.88 1.88 0 0 0-1.94 1.904c0 1.371 1.011 1.99 1.972 1.99S95.5 8.231 95.5 7.113zM106.441 10.173V4.036h1.254v.382c.361-.346 1-.485 1.47-.485 1.452 0 2.477 1.082 2.457 2.448v3.792h-1.27V6.492c0-.408-.214-1.339-1.315-1.339-.969 0-1.342.756-1.342 1.339v3.681h-1.254zm-30.383-.021V1.824h1.084l4.215 5.777V1.824h1.32v8.328h-1.094l-4.207-5.796v5.796h-1.319zM5.24 10.149H4V2.377h1.014l2.664 3.597 2.654-3.592h1.03v7.766h-1.256V4.762L7.678 8.068 5.24 4.742v5.407z" transform="translate(20, 1021.9948120117188)" fill="#80808088" stroke="none"></path></svg>